<!DOCTYPE svg PUBLIC "-//W3C//DTD SVG 1.1//EN" "http://www.w3.org/Graphics/SVG/1.1/DTD/svg11.dtd">
<!-- Uploaded to: SVG Repo, www.svgrepo.com, Transformed by: SVG Repo Mixer Tools -->
<svg fill="#67BDB7" width="64px" height="64px" viewBox="0 0 24 24" id="basketball-dribble" data-name="Line Color" xmlns="http://www.w3.org/2000/svg" class="icon line-color">
<g id="SVGRepo_bgCarrier" stroke-width="0"/>
<g id="SVGRepo_tracerCarrier" stroke-linecap="round" stroke-linejoin="round"/>
<g id="SVGRepo_iconCarrier">
<line id="secondary-upstroke" x1="18.45" y1="14.5" x2="18.55" y2="14.5" style="fill: none; stroke: #67BDB7; stroke-linecap: round; stroke-linejoin: round; stroke-width: 2;"/>
<circle id="primary" cx="12" cy="5" r="2" style="fill: none; stroke: #000000; stroke-linecap: round; stroke-linejoin: round; stroke-width: 2;"/>
<path id="primary-2" data-name="primary" d="M19,10l-2.28.76a1,1,0,0,1-1.14-.4l-1-1.47A2,2,0,0,0,12.93,8H10.24a1,1,0,0,0-.45.11L6.3,9.85a1,1,0,0,0-.45.45L5,12" style="fill: none; stroke: #000000; stroke-linecap: round; stroke-linejoin: round; stroke-width: 2;"/>
<path id="primary-3" data-name="primary" d="M10,8.05a58,58,0,0,0-1,6.66.86.86,0,0,0,.14.54c.8,1.24,2.74,2.06,3.9,2.46A1,1,0,0,1,13.68,19L13,21" style="fill: none; stroke: #000000; stroke-linecap: round; stroke-linejoin: round; stroke-width: 2;"/>
<path id="primary-4" data-name="primary" d="M6,21a15.6,15.6,0,0,0,3.86-4.62" style="fill: none; stroke: #000000; stroke-linecap: round; stroke-linejoin: round; stroke-width: 2;"/>
<line id="primary-5" data-name="primary" x1="13.93" y1="8.34" x2="13" y2="13" style="fill: none; stroke: #000000; stroke-linecap: round; stroke-linejoin: round; stroke-width: 2;"/>
</g>
</svg>